<?xml version="1.0" standalone="no"?>
<!DOCTYPE svg PUBLIC "-//W3C//DTD SVG 20010904//EN"
 "http://www.w3.org/TR/2001/REC-SVG-20010904/DTD/svg10.dtd">
<svg version="1.0" xmlns="http://www.w3.org/2000/svg"
 width="1080.000000pt" height="1080.000000pt" viewBox="0 0 1080.000000 1080.000000"
 preserveAspectRatio="xMidYMid meet">
<metadata>
Created by potrace 1.16, written by Peter Selinger 2001-2019
</metadata>
<g transform="translate(0.000000,1080.000000) scale(0.100000,-0.100000)"
fill="#000000" stroke="none">
<path d="M4636 10323 l-49 -4 6 -42 c3 -23 22 -220 43 -437 20 -217 40 -398
43 -402 6 -7 170 7 178 16 2 2 -4 85 -13 184 -16 171 -16 183 0 226 22 58 65
86 135 87 61 2 97 -19 117 -67 8 -18 22 -116 32 -216 l17 -183 90 3 c50 2 92
5 94 7 7 7 -31 372 -45 430 -19 78 -53 128 -110 161 -91 53 -252 40 -329 -27
-25 -22 -36 -27 -39 -17 -3 7 -10 75 -17 151 l-12 137 -46 -2 c-25 -1 -68 -3
-95 -5z"/>
<path d="M4246 10244 c-43 -13 -81 -26 -84 -28 -3 -3 12 -63 32 -133 21 -71
39 -135 42 -144 4 -16 1 -16 -38 -2 -87 30 -217 -3 -301 -76 -156 -138 -109
-443 84 -542 86 -43 206 -41 299 6 45 23 100 76 100 96 0 6 5 7 10 4 6 -3 10
-15 10 -25 0 -32 18 -33 102 -10 62 18 79 27 75 39 -34 131 -243 841 -247 840
-3 -1 -40 -12 -84 -25z m-45 -445 c104 -35 157 -181 99 -274 -44 -71 -155 -97
-221 -52 -128 86 -110 288 28 325 52 14 55 14 94 1z"/>
<path d="M5480 10130 c0 -7 -7 -91 -16 -188 -24 -261 -12 -344 58 -409 77 -72
230 -91 326 -41 l52 27 0 -33 0 -33 86 -7 c47 -4 87 -6 89 -4 5 6 56 630 52
634 -7 7 -171 23 -177 17 -3 -2 -12 -86 -21 -186 -18 -200 -28 -235 -82 -267
-39 -24 -106 -26 -147 -5 -40 21 -60 63 -60 127 0 53 15 250 25 320 l5 37 -42
5 c-129 16 -148 16 -148 6z"/>
<path d="M6334 10027 c-14 -40 -144 -594 -142 -606 3 -12 123 -49 164 -51 7 0
28 68 49 158 59 246 83 277 211 269 l72 -5 20 78 c11 44 17 82 14 85 -3 3 -37
5 -77 5 -51 0 -82 -6 -110 -20 -21 -11 -40 -18 -42 -17 -1 2 2 18 7 37 5 19 9
34 7 35 -1 1 -39 11 -85 23 -60 14 -85 17 -88 9z"/>
<path d="M6780 9863 c0 -38 5 -195 10 -351 l11 -283 -23 -19 c-51 -43 -110
-37 -163 16 l-35 35 -55 -47 c-60 -53 -61 -60 -3 -110 57 -47 136 -78 204 -78
102 0 133 24 451 351 l283 291 -82 33 -82 33 -161 -167 c-89 -92 -165 -164
-168 -160 -4 3 -7 108 -7 232 l0 226 -83 33 c-45 17 -86 32 -90 32 -4 0 -7
-30 -7 -67z"/>
<path d="M3560 9783 c-36 -20 -67 -37 -69 -39 -3 -3 19 -161 53 -371 9 -58 10
-80 2 -76 -6 4 -76 66 -156 137 -80 72 -153 137 -162 144 -15 12 -26 9 -79
-19 -33 -18 -63 -39 -66 -46 -3 -7 9 -108 27 -224 17 -116 30 -213 27 -215 -2
-3 -79 63 -170 145 l-165 151 -73 -41 c-40 -22 -75 -41 -76 -43 -2 -2 111
-105 252 -230 l255 -227 78 42 c42 23 78 43 79 43 1 1 -11 93 -28 205 -16 112
-27 206 -25 208 2 2 73 -57 157 -132 101 -89 159 -133 169 -130 8 4 43 22 78
41 42 24 62 41 62 54 0 31 -90 624 -98 642 -6 16 -14 14 -72 -19z"/>
<path d="M7676 9190 c-21 -34 -37 -62 -35 -64 24 -20 257 -170 269 -173 11 -3
25 9 42 34 56 85 63 71 -84 168 -72 48 -137 89 -142 91 -6 2 -28 -23 -50 -56z"/>
<path d="M8466 8736 l-228 -376 25 -33 c14 -17 45 -53 69 -79 l43 -48 269 110
c148 60 271 108 273 106 2 -2 -62 -111 -143 -242 -80 -131 -149 -244 -151
-251 -3 -7 24 -46 59 -87 45 -54 68 -74 82 -71 10 2 195 77 411 166 l394 162
-57 68 c-31 37 -62 68 -67 68 -6 1 -136 -51 -290 -114 -153 -63 -279 -114
-280 -113 -1 2 67 116 152 253 85 138 157 256 160 262 6 15 -95 143 -112 143
-7 0 -135 -50 -285 -111 -150 -60 -274 -108 -276 -106 -2 2 66 117 151 256
101 164 154 258 150 269 -3 9 -31 46 -63 81 l-58 63 -228 -376z"/>
<path d="M2474 9076 c-105 -26 -209 -109 -261 -208 -25 -47 -28 -63 -28 -148
0 -80 4 -102 23 -138 36 -67 98 -129 161 -159 79 -39 190 -39 274 -1 81 38
168 124 203 201 40 87 40 187 1 269 -68 141 -229 221 -373 184z m116 -181 c35
-18 87 -75 99 -108 37 -97 -24 -202 -127 -223 -73 -15 -177 60 -203 145 -39
132 107 250 231 186z"/>
<path d="M1889 8525 c-94 -30 -181 -139 -196 -245 l-8 -53 -119 97 -118 96
-59 -72 c-32 -40 -55 -75 -51 -79 25 -24 678 -549 682 -549 3 0 31 31 63 70
l56 69 -128 105 c-169 138 -191 164 -191 222 0 118 107 190 198 134 19 -12 92
-68 162 -125 71 -58 132 -105 137 -105 13 0 115 129 111 139 -6 17 -314 259
-356 280 -56 29 -125 35 -183 16z"/>
<path d="M1283 7986 c-103 -49 -195 -160 -241 -290 -21 -60 -24 -83 -20 -161
7 -129 34 -193 117 -276 246 -245 617 -150 737 190 35 98 29 291 -8 291 -6 0
-42 -10 -80 -22 l-69 -22 8 -46 c18 -109 -8 -193 -85 -267 -158 -154 -444 -31
-446 192 -2 114 78 232 181 266 38 12 39 14 15 99 -22 77 -33 81 -109 46z"/>
<path d="M9218 7717 c-106 -40 -174 -104 -208 -195 -50 -134 2 -320 122 -427
44 -41 106 -71 118 -58 17 18 51 128 41 131 -97 32 -171 195 -128 279 38 72
38 71 153 -159 58 -117 108 -215 110 -217 9 -10 105 49 146 91 120 123 116
316 -11 460 -61 69 -130 101 -226 105 -51 2 -93 -2 -117 -10z m216 -177 c73
-47 98 -154 54 -220 -13 -19 -28 -35 -35 -37 -11 -4 -143 242 -143 267 0 18
93 11 124 -10z"/>
<path d="M9630 7023 c-228 -69 -417 -127 -419 -129 -2 -2 6 -40 19 -85 l23
-81 35 7 c31 6 34 4 27 -12 -33 -81 -30 -153 8 -237 35 -76 87 -129 158 -161
55 -24 71 -27 143 -23 139 7 248 74 303 186 23 47 28 70 28 132 0 66 -5 85
-33 143 -23 45 -45 75 -68 90 -18 12 -34 24 -34 27 0 3 28 13 63 23 209 61
228 68 223 85 -33 116 -49 162 -54 161 -4 0 -194 -57 -422 -126z m81 -226 c79
-53 105 -156 57 -227 -52 -76 -187 -106 -258 -57 -68 46 -92 154 -50 223 46
74 182 107 251 61z"/>
<path d="M956 6715 c-123 -43 -195 -220 -148 -358 l19 -59 -32 6 -33 7 -20
-83 c-10 -46 -16 -86 -13 -89 10 -10 602 -141 615 -136 11 4 52 164 44 172 -2
2 -75 20 -163 39 -185 42 -228 58 -257 99 -52 72 -20 189 58 216 38 13 51 12
225 -27 101 -23 189 -42 195 -42 7 0 20 35 29 77 10 43 19 83 22 89 5 14 -394
105 -457 104 -25 -1 -62 -7 -84 -15z"/>
<path d="M894 5910 c-62 -9 -88 -22 -137 -68 -68 -66 -101 -206 -78 -338 13
-72 48 -164 62 -164 5 0 35 12 66 27 32 15 59 28 60 28 1 1 -7 20 -19 44 -28
57 -36 164 -15 213 16 38 67 78 100 78 15 0 17 -13 17 -132 0 -158 10 -200 59
-249 101 -102 261 -55 310 90 27 83 8 216 -39 266 -20 21 -20 21 14 17 40 -5
46 9 46 109 l0 67 -167 6 c-93 4 -181 8 -198 9 -16 2 -53 0 -81 -3z m262 -205
c52 -36 69 -135 34 -192 -17 -28 -25 -33 -59 -33 -60 0 -71 23 -71 142 l0 98
38 0 c21 0 47 -7 58 -15z"/>
<path d="M9638 5863 l-168 -3 0 -213 c0 -234 11 -314 57 -407 117 -240 460
-294 655 -103 53 52 101 142 117 221 6 30 11 154 11 282 l0 230 -252 -2 c-139
-1 -328 -4 -420 -5z m510 -330 c-3 -118 -7 -144 -25 -179 -28 -53 -91 -107
-142 -122 -101 -31 -226 -1 -284 68 -50 58 -60 95 -65 238 l-4 132 262 0 262
0 -4 -137z"/>
<path d="M1100 5215 c-233 -41 -257 -48 -316 -88 -66 -44 -96 -105 -96 -190 0
-97 25 -162 89 -225 l53 -54 -24 -28 c-31 -38 -50 -118 -42 -178 9 -62 50
-145 87 -176 l29 -25 -36 -7 c-30 -5 -35 -10 -30 -28 2 -11 10 -51 16 -88 11
-62 14 -67 34 -63 11 3 154 28 316 56 162 28 296 52 297 53 2 1 -26 156 -31
172 -3 7 -55 2 -163 -17 -192 -35 -244 -36 -289 -9 -46 29 -71 96 -55 150 18
61 52 75 262 111 101 18 187 35 191 38 4 4 0 46 -9 95 -16 86 -16 88 -42 83
-14 -3 -99 -18 -189 -33 -150 -26 -167 -27 -205 -13 -55 19 -87 66 -87 128 0
55 20 88 65 107 18 7 113 27 211 44 99 18 180 33 182 35 3 3 -26 177 -30 180
-2 1 -86 -13 -188 -30z"/>
<path d="M9625 4947 c-54 -18 -119 -62 -148 -101 -65 -84 -103 -212 -93 -310
7 -72 50 -171 68 -160 7 4 36 23 65 41 l52 33 -17 32 c-11 21 -17 56 -17 94 0
85 35 150 97 182 26 13 51 22 56 21 5 -2 -11 -110 -34 -239 -27 -144 -40 -238
-34 -244 5 -5 44 -11 87 -14 138 -7 239 49 303 170 29 54 35 75 38 149 5 106
-13 168 -68 238 -75 95 -241 145 -355 108z m220 -207 c61 -38 81 -120 49 -200
-19 -47 -59 -79 -110 -87 l-37 -6 6 32 c4 18 17 88 29 157 12 68 24 124 26
124 3 0 19 -9 37 -20z"/>
<path d="M9563 4141 c-160 -9 -294 -19 -297 -21 -4 -4 -66 -170 -66 -176 0 -2
116 -110 257 -240 l257 -237 24 64 c41 108 47 96 -142 269 l-168 155 133 8
c74 4 180 10 236 13 l102 6 30 84 c17 47 31 87 31 90 0 6 -62 3 -397 -15z"/>
<path d="M1465 4080 c-22 -10 -106 -46 -187 -80 -226 -95 -276 -151 -266 -304
7 -113 88 -267 175 -333 l35 -27 16 21 c10 11 30 36 45 56 l28 36 -42 38 c-46
41 -99 141 -99 186 0 36 25 83 50 97 27 15 34 9 55 -47 54 -143 126 -242 193
-264 75 -25 181 21 215 94 53 111 -13 291 -127 349 l-29 15 32 11 c17 6 31 14
31 17 0 21 -64 155 -73 154 -7 0 -30 -9 -52 -19z m15 -245 c34 -17 66 -67 75
-115 5 -28 2 -42 -15 -63 -26 -32 -78 -37 -103 -9 -16 17 -90 173 -85 177 36
28 86 32 128 10z"/>
<path d="M9174 3601 c-103 -26 -199 -113 -256 -229 -30 -60 -33 -76 -33 -154
0 -47 2 -89 5 -92 3 -3 37 3 75 13 l69 17 -3 46 c-4 79 51 177 121 214 27 14
108 20 108 8 0 -4 -52 -101 -116 -216 -132 -237 -130 -217 -24 -259 74 -29
177 -30 243 0 63 27 136 102 173 176 23 48 30 76 33 142 3 70 0 89 -22 136
-34 75 -88 132 -161 167 -65 32 -156 45 -212 31z m232 -282 c34 -66 4 -166
-62 -209 -28 -19 -134 -29 -134 -13 0 7 48 95 112 206 43 74 53 76 84 16z"/>
<path d="M1688 3492 c-32 -20 -58 -39 -58 -42 0 -3 56 -93 124 -200 69 -107
123 -196 122 -197 -1 -1 -161 17 -355 42 l-353 44 -54 -34 -53 -34 187 -295
c103 -163 191 -296 195 -296 4 0 35 18 68 40 49 34 58 44 50 59 -6 10 -60 95
-120 189 -61 95 -109 172 -106 172 2 0 163 -20 356 -45 l352 -45 51 31 c28 17
53 33 55 35 6 6 -384 613 -394 614 -5 0 -36 -17 -67 -38z"/>
<path d="M8687 3006 c-26 -35 -49 -69 -51 -77 -3 -9 115 -102 345 -269 192
-140 353 -256 358 -258 5 -2 32 29 61 69 50 69 51 72 34 89 -21 19 -691 510
-697 510 -2 0 -24 -29 -50 -64z"/>
<path d="M8520 2715 c-110 -31 -200 -110 -253 -223 -59 -126 -34 -263 66 -363
72 -72 124 -94 232 -94 84 0 94 2 153 34 75 41 145 115 181 191 37 78 37 202
2 275 -71 143 -235 220 -381 180z m129 -185 c75 -38 121 -121 107 -195 -9 -48
-68 -112 -116 -126 -50 -15 -99 -5 -149 31 -78 57 -105 162 -58 231 51 76 137
100 216 59z"/>
<path d="M2311 2598 l-28 -63 33 -18 c46 -24 68 -60 59 -94 -3 -15 -51 -73
-108 -130 l-101 -103 -58 57 -58 58 -53 -53 -52 -53 58 -56 58 -56 -55 -56
-56 -57 63 -62 c34 -34 67 -62 72 -62 5 0 33 23 62 52 l53 52 35 -34 35 -34
45 44 c25 24 45 49 45 54 0 6 -14 25 -32 43 l-32 33 117 118 c65 66 123 135
132 155 31 74 11 155 -55 231 -30 34 -122 96 -143 96 -4 0 -21 -28 -36 -62z"/>
<path d="M7853 2447 c-40 -29 -73 -55 -73 -60 0 -4 38 -58 84 -121 l84 -113
-59 -6 c-132 -12 -251 -131 -274 -274 -20 -125 84 -297 214 -356 64 -29 178
-28 243 1 88 39 177 142 178 204 1 22 1 22 25 -6 l24 -29 53 37 c101 70 95 62
71 93 -11 16 -125 172 -253 348 -128 176 -235 323 -239 327 -3 4 -39 -17 -78
-45z m187 -449 c18 -13 47 -40 64 -61 28 -35 31 -46 31 -107 0 -63 -3 -71 -30
-100 -41 -43 -76 -60 -125 -60 -48 0 -85 17 -121 57 -76 81 -79 183 -7 250 51
48 134 57 188 21z"/>
<path d="M2611 2143 c-68 -91 -131 -184 -142 -207 -27 -61 -25 -140 7 -204 53
-106 227 -223 337 -226 l51 -1 11 66 11 67 -43 6 c-90 12 -197 90 -209 153 -6
29 10 93 23 93 3 0 41 -27 86 -59 98 -70 151 -98 205 -107 105 -17 202 70 202
181 0 57 -26 108 -82 161 -64 62 -119 86 -183 82 l-53 -3 20 28 c24 33 21 38
-60 95 l-59 41 -122 -166z m307 -115 c32 -20 62 -64 62 -91 0 -8 -9 -26 -21
-41 -36 -45 -73 -34 -201 59 -33 24 -34 33 -8 63 37 45 104 49 168 10z"/>
<path d="M3414 2026 c-56 -25 -98 -82 -234 -322 -74 -131 -150 -264 -168 -295
l-32 -58 82 -45 82 -45 163 287 c89 158 174 297 189 310 33 29 66 23 110 -19
l31 -30 51 42 c29 24 52 48 52 55 0 19 -79 84 -134 110 -58 27 -142 31 -192
10z"/>
<path d="M7242 1775 c-128 -36 -227 -113 -266 -207 l-15 -36 52 -20 c29 -11
60 -23 69 -27 12 -5 21 2 32 24 9 17 26 40 39 52 33 32 117 69 157 69 37 0
113 -30 124 -49 4 -6 -78 -52 -214 -118 l-220 -108 24 -52 c29 -61 88 -123
148 -155 36 -19 58 -23 138 -23 86 0 101 3 155 30 215 107 266 354 111 532
-75 85 -213 122 -334 88z m253 -326 c16 -50 -24 -132 -78 -161 -37 -20 -87
-26 -122 -17 -35 10 -94 53 -85 62 8 7 264 136 272 136 4 1 10 -8 13 -20z"/>
<path d="M3561 1723 c-11 -23 -140 -344 -212 -525 l-18 -46 77 -31 c42 -17 82
-31 88 -31 7 0 36 60 65 133 29 72 63 153 75 179 51 102 153 123 237 48 51
-45 45 -91 -36 -289 -37 -91 -67 -170 -67 -176 0 -10 51 -33 151 -70 14 -5 31
31 98 198 71 178 81 212 81 266 0 107 -43 171 -154 228 -54 28 -151 37 -209
19 -27 -8 -27 -7 -17 19 5 14 10 30 10 34 0 4 -33 21 -72 37 -40 16 -75 30
-79 32 -3 1 -11 -10 -18 -25z"/>
<path d="M6718 1554 c-43 -14 -78 -30 -78 -36 0 -6 23 -80 50 -164 55 -169 61
-219 29 -271 -20 -33 -83 -73 -113 -73 -8 0 -17 -3 -19 -7 -8 -12 43 -163 54
-163 37 0 125 65 154 114 l23 38 7 -32 c4 -17 12 -33 19 -36 18 -7 161 40 161
53 0 27 -191 603 -200 602 -5 0 -45 -12 -87 -25z"/>
<path d="M4270 1466 c0 -2 -34 -185 -75 -406 -41 -222 -72 -406 -69 -409 5 -5
177 -41 180 -37 1 0 21 102 43 226 23 124 45 235 49 247 6 17 36 -32 157 -254
83 -152 155 -281 161 -288 11 -11 152 -41 158 -34 4 5 145 764 149 799 2 23
-2 25 -88 41 -49 9 -91 16 -92 15 -2 -2 -23 -112 -49 -247 -25 -134 -46 -244
-47 -245 -1 -2 -73 127 -161 285 l-158 287 -69 12 c-74 13 -89 14 -89 8z"/>
<path d="M2913 1235 c-63 -27 -80 -117 -30 -162 49 -45 96 -54 146 -29 76 40
63 148 -22 187 -50 22 -53 22 -94 4z"/>
<path d="M5937 1107 l-158 -20 6 -56 c9 -78 14 -91 33 -91 37 1 304 38 309 43
10 11 -9 147 -21 146 -6 -1 -82 -11 -169 -22z"/>
</g>
</svg>
